<svg width="84" height="64" viewBox="0 0 84 64" fill="none" xmlns="http://www.w3.org/2000/svg">
<path d="M58.2879 45.1064C54.8033 41.5069 50.8618 38.3801 46.564 35.8053C51.2967 33.4812 55.7999 30.7168 60.0148 27.5491C59.6851 33.5213 59.1955 39.4831 58.6156 45.436C58.505 45.3273 58.3985 45.2147 58.2879 45.1064ZM7.284 56.4574C2.29304 56.3086 2.89257 51.8397 3.38607 48.1781C3.95013 41.5624 4.56008 34.9537 4.88433 28.3226C5.3921 28.2979 5.83124 27.9597 5.98469 27.4751C7.12978 24.3676 6.27771 20.5409 8.59873 17.8664C11.3539 14.6917 17.1487 15.8025 20.8581 15.9197C30.0354 16.2093 39.205 16.8366 48.3838 17.0571C51.56 17.1485 59.7175 15.6869 60.2133 20.3979C51.6834 25.7675 43.9531 32.0204 34.4997 35.9268C32.88 36.6281 31.6493 37.102 30.1453 35.8366C23.5142 29.7221 17.402 22.8057 9.58074 18.1733C5.27806 17.6718 19.9642 32.4181 21.3504 33.8099C21.3636 33.8231 21.3756 33.8352 21.3863 33.846C15.1682 36.9597 7.77057 39.8725 3.90618 45.9257C3.6895 46.3957 3.93394 47.1244 4.56201 47.0685C8.77801 46.4978 12.329 43.7442 16.1239 41.985C18.9882 40.3256 22.1956 39.2395 24.9789 37.4671C30.6496 44.4394 36.023 40.9598 42.6545 37.7474C47.6551 42.6354 53.0058 47.2624 58.0138 52.1427C57.8468 54.1341 57.4674 56.2307 57.4902 58.261C40.8884 57.3969 24.2589 56.932 7.65338 56.4678C7.53025 56.4643 7.40713 56.4609 7.284 56.4574Z" fill="#165B96"/>
<path fill-rule="evenodd" clip-rule="evenodd" d="M29.2831 12.1302C22.6377 12.5721 9.48319 10.0806 5.00693 16.3446C3.19445 19.2201 2.53902 22.6758 3.17286 26.0154C1.71278 34.0145 1.26399 42.3154 0.500217 50.4405C-0.366503 57.1422 3.25692 59.6097 9.54179 59.6876C25.9852 61.069 42.4479 62.132 58.9237 63.023C59.9743 63.1298 60.9258 62.3992 61.0939 61.3566C63.605 58.5587 62.7533 53.0017 63.3814 49.3749C63.6617 46.4601 64.0083 39.5036 64.1213 36.5791C64.2034 34.2034 64.7847 28.8705 64.8286 26.4939C64.903 22.5089 65.5789 17.7535 62.0985 14.9386C58.7122 12.2 53.3238 12.7536 49.2685 12.616C46.3129 12.5158 43.3461 12.424 40.3685 12.3415C37.9553 12.2864 31.6951 12.158 29.2831 12.1302ZM46.564 35.8053C50.8618 38.3801 54.8033 41.5069 58.2879 45.1064C58.3985 45.2147 58.505 45.3273 58.6156 45.436C59.1955 39.4831 59.6851 33.5213 60.0148 27.5491C55.7999 30.7168 51.2967 33.4812 46.564 35.8053ZM3.38607 48.1781C2.89257 51.8397 2.29304 56.3086 7.284 56.4574L7.65338 56.4678C24.2589 56.932 40.8884 57.3969 57.4902 58.261C57.4674 56.2307 57.8468 54.1341 58.0138 52.1427C53.0058 47.2624 47.6551 42.6354 42.6545 37.7474C36.023 40.9598 30.6496 44.4394 24.9789 37.4671C22.1956 39.2395 18.9882 40.3256 16.1239 41.985C12.329 43.7442 8.77801 46.4978 4.56201 47.0685C3.93394 47.1244 3.6895 46.3957 3.90618 45.9257C7.77057 39.8725 15.1682 36.9597 21.3863 33.846L21.3504 33.8099C19.9642 32.4181 5.27806 17.6718 9.58074 18.1733C17.402 22.8057 23.5142 29.7221 30.1453 35.8366C31.6493 37.102 32.88 36.6281 34.4997 35.9268C43.9531 32.0204 51.6834 25.7675 60.2133 20.3979C59.7175 15.6869 51.56 17.1485 48.3838 17.0571C39.205 16.8366 30.0354 16.2093 20.8581 15.9197C17.1487 15.8025 11.3539 14.6917 8.59873 17.8664C6.27771 20.5409 7.12978 24.3676 5.98469 27.4751C5.83124 27.9597 5.3921 28.2979 4.88433 28.3226C4.56008 34.9537 3.95013 41.5624 3.38607 48.1781Z" fill="white"/>
<path d="M62.873 0C62.873 0 62.873 11.3103 66.2071 17.166C72.7696 20.5 83.373 20.5 83.373 20.5C83.373 20.5 72.0627 20.5 66.2071 23.834C62.873 28.9828 62.873 41 62.873 41C62.873 41 62.1662 28.9828 59.539 23.834C53.6834 20.5 42.373 20.5 42.373 20.5C42.373 20.5 53.6834 19.7931 59.539 17.166C62.873 11.3103 62.873 0 62.873 0Z" fill="#A0EF21"/>
<path d="M11.5 37C11.5 37 11.5 42.2414 13.045 44.955C16.0862 46.5 21 46.5 21 46.5C21 46.5 15.7586 46.5 13.045 48.045C11.5 50.431 11.5 56 11.5 56C11.5 56 11.1724 50.431 9.95497 48.045C7.24138 46.5 2 46.5 2 46.5C2 46.5 7.24138 46.1724 9.95497 44.955C11.5 42.2414 11.5 37 11.5 37Z" fill="#A0EF21"/>
</svg>
