<svg width="65" height="52" viewBox="0 0 65 52" fill="none" xmlns="http://www.w3.org/2000/svg">
<path d="M57.9148 33.1064C54.4302 29.5069 50.4887 26.3801 46.191 23.8053C50.9236 21.4812 55.4269 18.7168 59.6417 15.5491C59.3121 21.5213 58.8224 27.4831 58.2426 33.436C58.1319 33.3273 58.0255 33.2147 57.9148 33.1064ZM6.91096 44.4574C1.91999 44.3086 2.51952 39.8397 3.01303 36.1781C3.57709 29.5624 4.18703 22.9537 4.51128 16.3226C5.01905 16.2979 5.4582 15.9597 5.61164 15.4751C6.75673 12.3676 5.90467 8.54095 8.22569 5.86638C10.9808 2.69174 16.7757 3.80254 20.4851 3.91974C29.6624 4.20929 38.832 4.83657 48.0108 5.0571C51.187 5.14848 59.3445 3.68687 59.8403 8.39792C51.3103 13.7675 43.58 20.0204 34.1267 23.9268C32.507 24.6281 31.2763 25.102 29.7722 23.8366C23.1411 17.7221 17.029 10.8057 9.20769 6.17328C4.90501 5.67183 19.5912 20.4181 20.9774 21.8099C20.9905 21.8231 21.0025 21.8352 21.0133 21.846C14.7951 24.9597 7.39752 27.8725 3.53313 33.9257C3.31645 34.3957 3.5609 35.1244 4.18896 35.0685C8.40496 34.4978 11.9559 31.7442 15.7509 29.985C18.6152 28.3256 21.8226 27.2395 24.6059 25.4671C30.2765 32.4394 35.65 28.9598 42.2815 25.7474C47.2821 30.6354 52.6328 35.2624 57.6407 40.1427C57.4738 42.1341 57.0944 44.2307 57.1171 46.261C40.5154 45.3969 23.8859 44.932 7.28033 44.4678C7.1572 44.4643 7.03408 44.4609 6.91096 44.4574Z" fill="#DFF1FE"/>
<path fill-rule="evenodd" clip-rule="evenodd" d="M28.91 0.130209C22.2647 0.572051 9.11014 -1.91945 4.63389 4.34461C2.82141 7.22006 2.16597 10.6758 2.79982 14.0154C1.33973 22.0145 0.890948 30.3154 0.12717 38.4405C-0.73955 45.1422 2.88387 47.6097 9.16875 47.6876C25.6121 49.069 42.0748 50.132 58.5506 51.023C59.6012 51.1298 60.5528 50.3992 60.7209 49.3566C63.232 46.5587 62.3803 41.0017 63.0084 37.3749C63.2887 34.4601 63.6353 27.5036 63.7482 24.5791C63.8304 22.2034 64.4116 16.8705 64.4556 14.4939C64.53 10.5089 65.2059 5.75349 61.7255 2.93857C58.3392 0.199999 52.9507 0.753645 48.8955 0.616003C45.9399 0.515759 42.973 0.424005 39.9954 0.341497C37.5823 0.286363 31.3221 0.157969 28.91 0.130209ZM46.191 23.8053C50.4887 26.3801 54.4302 29.5069 57.9148 33.1064C58.0255 33.2147 58.1319 33.3273 58.2426 33.436C58.8224 27.4831 59.3121 21.5213 59.6417 15.5491C55.4269 18.7168 50.9236 21.4812 46.191 23.8053ZM3.01303 36.1781C2.51952 39.8397 1.91999 44.3086 6.91096 44.4574L7.28033 44.4678C23.8859 44.932 40.5154 45.3969 57.1171 46.261C57.0944 44.2307 57.4738 42.1341 57.6407 40.1427C52.6328 35.2624 47.2821 30.6354 42.2815 25.7474C35.65 28.9598 30.2765 32.4394 24.6059 25.4671C21.8226 27.2395 18.6152 28.3256 15.7509 29.985C11.9559 31.7442 8.40496 34.4978 4.18896 35.0685C3.5609 35.1244 3.31645 34.3957 3.53313 33.9257C7.39752 27.8725 14.7951 24.9597 21.0133 21.846L20.9774 21.8099C19.5912 20.4181 4.90501 5.67183 9.20769 6.17328C17.029 10.8057 23.1411 17.7221 29.7722 23.8366C31.2763 25.102 32.507 24.6281 34.1267 23.9268C43.58 20.0204 51.3103 13.7675 59.8403 8.39792C59.3445 3.68687 51.187 5.14848 48.0108 5.0571C38.832 4.83657 29.6624 4.20929 20.4851 3.91974C16.7757 3.80254 10.9808 2.69174 8.22569 5.86638C5.90467 8.54095 6.75673 12.3676 5.61164 15.4751C5.4582 15.9597 5.01905 16.2979 4.51128 16.3226C4.18703 22.9537 3.57709 29.5624 3.01303 36.1781Z" fill="#165B96"/>
</svg>
