<svg width="320" height="236" viewBox="0 0 320 236" fill="none" xmlns="http://www.w3.org/2000/svg">
<g clip-path="url(#clip0_395_1560)">
<rect width="320" height="236" rx="30" fill="#DFF1FE"/>
<path d="M90.4532 30.4825C97.9007 27.226 107.188 26.4798 114.933 25.3061C140.41 21.4454 166.646 16.9081 192.515 18.236C210.369 19.1525 229.419 21.741 245.743 29.4725C253.389 33.0934 267.871 40.9941 266.959 51.6928C266.021 62.6991 252.711 71.0809 244.362 75.6807C224.366 86.6977 201.335 92.8463 179.208 97.6486C134.392 107.375 88.612 111.211 43 107.749" stroke="#165B96" stroke-width="65" stroke-linecap="round"/>
<path d="M64.8999 117.259C65.8173 117.14 65.8748 116.489 66.6419 116.135C74.679 112.424 85.5259 111.922 93.9133 110.456C145.707 101.402 199.014 101.9 250.754 111.766C269.044 115.254 290.069 118.183 299.771 138.185C300.292 152.873 300.903 155.14 289.598 163.12C273.012 171.431 259.405 177.641 241.756 182.826C165.718 205.164 92.0115 215 13 215" stroke="#165B96" stroke-width="65" stroke-linecap="round"/>
<path d="M207.626 -30.0132C240.355 -73.7843 138.166 54.388 102.266 95.5814C74.6007 127.325 41.7118 155.702 20 192" stroke="#165B96" stroke-width="65" stroke-linecap="round"/>
<path d="M121 110.256C124.616 109.776 127.752 108.048 127.752 104.688C127.752 101.552 124.808 98.64 115.688 98.64H98.28V122H115.688C125.512 122 128.424 119.088 128.424 115.952C128.424 112.592 124.712 110.8 121 110.32V110.256ZM113.96 105.936C115.24 105.936 115.688 106.352 115.688 106.96C115.688 107.568 115.24 108.048 113.992 108.048H109.512V105.936H113.96ZM109.512 114.704V112.592H114.44C115.88 112.592 116.328 113.04 116.328 113.68C116.328 114.288 115.912 114.704 114.376 114.704H109.512ZM143.632 104.4C133.391 104.4 130.032 107.856 129.392 111.472H141.296C141.584 110.992 142 110.64 143.504 110.64C145.008 110.64 145.583 111.024 145.712 111.888L141.872 112.112C131.472 112.688 129.136 114.8 129.136 118C129.136 120.624 131.152 122.64 137.232 122.64C143.152 122.64 146.576 120.496 147.792 117.52L152.208 122H157.456V114.192C157.456 107.696 154.128 104.4 143.632 104.4ZM142.224 116.592C141.168 116.592 140.848 116.272 140.848 115.888C140.848 115.344 141.552 114.96 143.76 114.768L145.84 114.608C145.84 115.504 144.752 116.592 142.224 116.592ZM158.598 115.984C158.95 119.632 161.894 122.64 173.19 122.64C184.23 122.64 187.11 119.76 187.11 116.944C187.11 114.032 184.998 111.952 173.99 111.664C170.662 111.536 170.374 111.248 170.374 110.832C170.374 110.448 170.726 110.128 172.55 110.128C174.278 110.128 174.758 110.544 174.885 111.024H186.694C186.342 107.504 183.302 104.4 172.486 104.4C161.638 104.4 158.822 107.248 158.822 110.128C158.822 113.008 160.806 115.024 171.814 115.344C175.142 115.504 175.43 115.792 175.43 116.176C175.43 116.528 175.046 116.912 173.126 116.912C171.206 116.912 170.758 116.464 170.598 115.984H158.598ZM200.784 99.792C200.784 102.064 199.152 103.728 194.48 103.728C189.808 103.728 188.176 102.064 188.176 99.792C188.176 97.488 189.808 95.856 194.48 95.856C199.152 95.856 200.784 97.488 200.784 99.792ZM200.336 122V105.04H188.56V122H200.336ZM202.075 113.776C202.075 118.672 206.043 122.64 216.283 122.64C226.267 122.64 229.787 119.28 230.555 114.416H218.587C218.331 115.056 217.755 115.536 216.283 115.536C214.587 115.536 213.819 114.8 213.819 113.52C213.819 112.24 214.587 111.504 216.283 111.504C217.755 111.504 218.331 111.984 218.587 112.624H230.523C229.755 107.76 226.267 104.4 216.283 104.4C206.043 104.4 202.075 108.368 202.075 113.264V113.776Z" fill="#DFF1FE"/>
</g>
<defs>
<clipPath id="clip0_395_1560">
<rect width="320" height="236" rx="30" fill="white"/>
</clipPath>
</defs>
</svg>
