<svg width="15" height="10" viewBox="0 0 15 10" fill="none" xmlns="http://www.w3.org/2000/svg">
<path d="M5.3125 9.78125C5.08881 9.78028 4.87436 9.69197 4.71484 9.53515L0.777343 5.59765C0.618834 5.43915 0.529785 5.22416 0.529785 5C0.529785 4.77583 0.618834 4.56085 0.777343 4.40234C0.935851 4.24383 1.15083 4.15479 1.375 4.15479C1.59916 4.15479 1.81415 4.24383 1.97266 4.40234L5.3125 7.74219L12.5898 0.464843C12.6683 0.386357 12.7615 0.324099 12.864 0.281623C12.9666 0.239147 13.0765 0.217285 13.1875 0.217285C13.2985 0.217285 13.4084 0.239147 13.5109 0.281623C13.6135 0.324099 13.7067 0.386357 13.7852 0.464843C13.8636 0.543328 13.9259 0.636504 13.9684 0.73905C14.0108 0.841596 14.0327 0.951504 14.0327 1.0625C14.0327 1.17349 14.0108 1.2834 13.9684 1.38595C13.9259 1.48849 13.8636 1.58167 13.7852 1.66016L5.91015 9.53515C5.75064 9.69197 5.53618 9.78028 5.3125 9.78125Z" fill="#1F9A61"/>
</svg>
