<svg width="320" height="236" viewBox="0 0 320 236" fill="none" xmlns="http://www.w3.org/2000/svg">
<g clip-path="url(#clip0_395_1636)">
<rect width="320" height="236" rx="30" fill="#A0EF21"/>
<path d="M135.174 6.67731C136.074 4.6696 139.34 5.80355 140.851 5.68723C151.481 4.86904 161.958 3.48417 172.588 3.7095C190.433 4.08779 208.214 5.95281 226.035 6.23242C254.959 6.68621 285.641 7.26441 313.252 17.2428C329.972 23.2853 342.96 32.6175 348.272 53.5018C352.32 69.4179 340.698 84.227 330.271 92.3964C309.146 108.949 281.16 113.51 257.11 117.26C227.861 121.821 193.375 121.252 164.155 120.78C136.423 120.331 79.078 120.78 40.7938 120.78" stroke="#165B96" stroke-width="70" stroke-linecap="round"/>
<path d="M196.422 -82.6052C210.222 -142.923 163.232 36.6311 144.96 95.7484C130.88 141.305 109.838 185.791 104.022 233.307" stroke="#165B96" stroke-width="70" stroke-linecap="round"/>
<path d="M58.28 101.64V125H70.088V119.848H74.504C84.68 119.848 87.976 116.552 87.976 110.664C87.976 104.936 84.68 101.64 74.504 101.64H58.28ZM70.088 112.232V109.672H74.024C75.4 109.672 75.88 110.152 75.88 110.952C75.88 111.752 75.4 112.232 74.024 112.232H70.088ZM105.34 107.4C102.108 107.4 99.8035 109 98.9715 113.32L94.6515 108.04H89.4035V125H101.244V120.808C101.244 118.344 102.044 117.576 104.828 117.576C106.524 117.576 108.252 117.704 109.468 117.8V107.752C108.7 107.624 107.132 107.4 105.34 107.4ZM139.371 115.72C139.371 111.208 135.563 107.4 125.259 107.4C114.699 107.4 110.731 111.368 110.731 116.232V116.808C110.731 121.672 114.699 125.64 125.259 125.64C135.115 125.64 138.443 122.312 139.115 118.568H127.179C126.795 118.92 126.443 119.272 124.715 119.272C123.243 119.272 122.443 118.792 122.155 117.544H139.243C139.339 116.904 139.371 116.392 139.371 115.72ZM125.003 113.384C126.731 113.384 127.499 113.832 127.723 114.888H122.219C122.571 113.832 123.403 113.384 125.003 113.384ZM174.211 107.464C170.723 107.464 167.971 109.128 166.627 112.264C165.379 108.968 162.659 107.4 158.499 107.4C154.147 107.4 151.171 109.384 149.987 113.384L146.339 108.04H141.091V125H152.579V117.672C152.579 116.552 153.219 115.88 154.467 115.88C155.683 115.88 156.227 116.392 156.227 117.896V125H167.331V117.672C167.331 116.552 168.003 115.88 169.251 115.88C170.499 115.88 171.011 116.392 171.011 117.832V125H182.467V117.064C182.467 110.504 179.395 107.464 174.211 107.464ZM196.94 102.792C196.94 105.064 195.308 106.728 190.636 106.728C185.964 106.728 184.332 105.064 184.332 102.792C184.332 100.488 185.964 98.856 190.636 98.856C195.308 98.856 196.94 100.488 196.94 102.792ZM196.492 125V108.04H184.716V125H196.492ZM214.391 115.336C214.391 116.52 213.751 117.16 212.407 117.16C211.063 117.16 210.551 116.648 210.551 115.144V108.04H198.743V116.04C198.743 122.472 201.911 125.64 208.023 125.64C212.663 125.64 215.767 123.656 216.951 119.624L220.951 125H226.199V108.04H214.391V115.336ZM261.742 107.464C258.254 107.464 255.502 109.128 254.158 112.264C252.91 108.968 250.19 107.4 246.03 107.4C241.678 107.4 238.702 109.384 237.518 113.384L233.87 108.04H228.622V125H240.11V117.672C240.11 116.552 240.75 115.88 241.998 115.88C243.214 115.88 243.758 116.392 243.758 117.896V125H254.862V117.672C254.862 116.552 255.534 115.88 256.782 115.88C258.03 115.88 258.542 116.392 258.542 117.832V125H269.998V117.064C269.998 110.504 266.926 107.464 261.742 107.464Z" fill="#A0EF21"/>
</g>
<defs>
<clipPath id="clip0_395_1636">
<rect width="320" height="236" rx="30" fill="white"/>
</clipPath>
</defs>
</svg>
