<svg width="320" height="236" viewBox="0 0 320 236" fill="none" xmlns="http://www.w3.org/2000/svg">
<g clip-path="url(#clip0_395_1602)">
<rect width="320" height="236" rx="30" fill="#D4CAFF"/>
<path d="M282.366 61.7727C290.552 57.9091 297.637 52.0194 300.972 43.1574C305.549 30.9947 278.308 24.0902 271.248 22.5826C213.27 10.2027 151.936 31.9638 100.014 56.4217C94.1622 59.1784 6.05481 98.2637 31.7177 113.323C53.5472 126.132 86.7353 123.312 110.83 122.517C141.158 121.517 171.4 117.566 201.741 117.392C221.665 117.278 241.678 117.482 261.264 121.538C274.083 124.192 290.531 126.739 299.157 137.741C306.646 147.294 297.835 160.468 290.081 166.908C267.806 185.404 235.926 191.402 208.624 198.034C168.204 207.851 125.744 214.123 84.2071 216.423C65.5274 217.457 47.1362 217.158 28.5411 215.066C20.6012 214.173 8.13844 214.101 2.37192 207.228C-7.74382 195.172 41.3989 178.906 41.3987 190.648" stroke="#165B96" stroke-width="66" stroke-linecap="round"/>
<path d="M43.32 122.616C43.576 127.672 47.48 131.64 59.8 131.64C72.056 131.64 75.736 127.96 75.736 123.928C75.736 119.768 73.304 117.336 60.152 116.696C56.376 116.408 55.96 115.992 55.96 115.48C55.96 115 56.472 114.52 59.032 114.52C61.528 114.52 62.168 115.224 62.36 115.992H75.16C74.84 111.224 70.712 107 59 107C47.32 107 43.704 110.616 43.704 114.712C43.704 118.84 46.2 121.368 58.872 121.976C62.68 122.2 63.064 122.68 63.064 123.128C63.064 123.608 62.584 124.12 59.768 124.12C56.984 124.12 56.344 123.416 56.184 122.616H43.32ZM100.572 114.04H92.5083V108.76H85.5323L81.9803 114.04H76.5723V121.272H81.1163V122.456C81.1163 129.176 83.5803 131.64 92.7003 131.64C96.2843 131.64 98.9403 131.256 100.604 131V123.864C98.8443 124.056 97.2763 124.184 95.3563 124.184C92.8923 124.184 92.5083 123.8 92.5083 122.136V121.272H100.572V114.04ZM116.475 113.4C106.235 113.4 102.875 116.856 102.235 120.472H114.139C114.427 119.992 114.843 119.64 116.347 119.64C117.851 119.64 118.427 120.024 118.555 120.888L114.715 121.112C104.315 121.688 101.979 123.8 101.979 127C101.979 129.624 103.995 131.64 110.075 131.64C115.995 131.64 119.419 129.496 120.635 126.52L125.051 131H130.299V123.192C130.299 116.696 126.971 113.4 116.475 113.4ZM115.067 125.592C114.011 125.592 113.691 125.272 113.691 124.888C113.691 124.344 114.395 123.96 116.603 123.768L118.683 123.608C118.683 124.504 117.595 125.592 115.067 125.592ZM150.673 113.4C146.033 113.4 142.929 115.384 141.745 119.416L137.713 114.04H132.497V131H144.305V123.672C144.305 122.52 144.977 121.88 146.353 121.88C147.665 121.88 148.177 122.392 148.177 123.896V131H159.985V122.968C159.985 116.568 156.817 113.4 150.673 113.4ZM178.536 116.504C177.064 114.52 174.568 113.4 171.144 113.4C165.16 113.4 161.608 116.952 161.608 122.264V122.776C161.608 128.088 165.16 131.64 171.688 131.64C176.968 131.64 180.264 129.336 181.352 125.816L185.096 131H190.312V107.64H178.536V116.504ZM175.976 124.44C174.152 124.44 173.416 123.736 173.416 122.52C173.416 121.304 174.152 120.6 175.976 120.6C177.8 120.6 178.536 121.336 178.536 122.52C178.536 123.704 177.8 124.44 175.976 124.44ZM206.507 113.4C196.266 113.4 192.907 116.856 192.267 120.472H204.171C204.459 119.992 204.875 119.64 206.379 119.64C207.883 119.64 208.458 120.024 208.587 120.888L204.747 121.112C194.347 121.688 192.011 123.8 192.011 127C192.011 129.624 194.027 131.64 200.107 131.64C206.027 131.64 209.451 129.496 210.667 126.52L215.083 131H220.331V123.192C220.331 116.696 217.003 113.4 206.507 113.4ZM205.099 125.592C204.043 125.592 203.723 125.272 203.723 124.888C203.723 124.344 204.427 123.96 206.635 123.768L208.715 123.608C208.715 124.504 207.627 125.592 205.099 125.592ZM238.465 113.4C235.233 113.4 232.929 115 232.097 119.32L227.777 114.04H222.529V131H234.369V126.808C234.369 124.344 235.169 123.576 237.953 123.576C239.649 123.576 241.377 123.704 242.593 123.8V113.752C241.825 113.624 240.257 113.4 238.465 113.4ZM260.88 116.504C259.408 114.52 256.912 113.4 253.488 113.4C247.504 113.4 243.952 116.952 243.952 122.264V122.776C243.952 128.088 247.504 131.64 254.032 131.64C259.312 131.64 262.608 129.336 263.696 125.816L267.44 131H272.656V107.64H260.88V116.504ZM258.32 124.44C256.496 124.44 255.76 123.736 255.76 122.52C255.76 121.304 256.496 120.6 258.32 120.6C260.144 120.6 260.88 121.336 260.88 122.52C260.88 123.704 260.144 124.44 258.32 124.44Z" fill="#D4CAFF"/>
</g>
<defs>
<clipPath id="clip0_395_1602">
<rect width="320" height="236" rx="30" fill="white"/>
</clipPath>
</defs>
</svg>
