<svg width="320" height="236" viewBox="0 0 320 236" fill="none" xmlns="http://www.w3.org/2000/svg">
<g clip-path="url(#clip0_395_1602)">
<rect width="320" height="236" rx="30" fill="#D4CAFF"/>
<path d="M294.366 61.7727C302.552 57.9091 309.637 52.0194 312.972 43.1574C317.549 30.9947 290.308 24.0902 283.248 22.5826C225.27 10.2027 163.936 31.9638 112.014 56.4217C106.162 59.1784 18.0548 98.2637 43.7177 113.323C65.5472 126.132 98.7353 123.312 122.83 122.517C153.158 121.517 183.4 117.566 213.741 117.392C233.665 117.278 253.678 117.482 273.264 121.538C286.083 124.192 302.531 126.739 311.157 137.741C318.646 147.294 309.835 160.468 302.081 166.908C279.806 185.404 247.926 191.402 220.624 198.034C180.204 207.851 137.744 214.123 96.2071 216.423C77.5274 217.457 59.1362 217.158 40.5411 215.066C32.6012 214.173 20.1384 214.101 14.3719 207.228C4.25618 195.172 53.3989 178.906 53.3987 190.648" stroke="#165B96" stroke-width="66" stroke-linecap="round"/>
<path d="M47.32 122.616C47.576 127.672 51.48 131.64 63.8 131.64C76.056 131.64 79.736 127.96 79.736 123.928C79.736 119.768 77.304 117.336 64.152 116.696C60.376 116.408 59.96 115.992 59.96 115.48C59.96 115 60.472 114.52 63.032 114.52C65.528 114.52 66.168 115.224 66.36 115.992H79.16C78.84 111.224 74.712 107 63 107C51.32 107 47.704 110.616 47.704 114.712C47.704 118.84 50.2 121.368 62.872 121.976C66.68 122.2 67.064 122.68 67.064 123.128C67.064 123.608 66.584 124.12 63.768 124.12C60.984 124.12 60.344 123.416 60.184 122.616H47.32ZM104.572 114.04H96.5083V108.76H89.5323L85.9803 114.04H80.5723V121.272H85.1163V122.456C85.1163 129.176 87.5803 131.64 96.7003 131.64C100.284 131.64 102.94 131.256 104.604 131V123.864C102.844 124.056 101.276 124.184 99.3563 124.184C96.8923 124.184 96.5083 123.8 96.5083 122.136V121.272H104.572V114.04ZM120.475 113.4C110.235 113.4 106.875 116.856 106.235 120.472H118.139C118.427 119.992 118.843 119.64 120.347 119.64C121.851 119.64 122.427 120.024 122.555 120.888L118.715 121.112C108.315 121.688 105.979 123.8 105.979 127C105.979 129.624 107.995 131.64 114.075 131.64C119.995 131.64 123.419 129.496 124.635 126.52L129.051 131H134.299V123.192C134.299 116.696 130.971 113.4 120.475 113.4ZM119.067 125.592C118.011 125.592 117.691 125.272 117.691 124.888C117.691 124.344 118.395 123.96 120.603 123.768L122.683 123.608C122.683 124.504 121.595 125.592 119.067 125.592ZM154.673 113.4C150.033 113.4 146.929 115.384 145.745 119.416L141.713 114.04H136.497V131H148.305V123.672C148.305 122.52 148.977 121.88 150.353 121.88C151.665 121.88 152.177 122.392 152.177 123.896V131H163.985V122.968C163.985 116.568 160.817 113.4 154.673 113.4ZM182.536 116.504C181.064 114.52 178.568 113.4 175.144 113.4C169.16 113.4 165.608 116.952 165.608 122.264V122.776C165.608 128.088 169.16 131.64 175.688 131.64C180.968 131.64 184.264 129.336 185.352 125.816L189.096 131H194.312V107.64H182.536V116.504ZM179.976 124.44C178.152 124.44 177.416 123.736 177.416 122.52C177.416 121.304 178.152 120.6 179.976 120.6C181.8 120.6 182.536 121.336 182.536 122.52C182.536 123.704 181.8 124.44 179.976 124.44ZM210.507 113.4C200.266 113.4 196.907 116.856 196.267 120.472H208.171C208.459 119.992 208.875 119.64 210.379 119.64C211.883 119.64 212.458 120.024 212.587 120.888L208.747 121.112C198.347 121.688 196.011 123.8 196.011 127C196.011 129.624 198.027 131.64 204.107 131.64C210.027 131.64 213.451 129.496 214.667 126.52L219.083 131H224.331V123.192C224.331 116.696 221.003 113.4 210.507 113.4ZM209.099 125.592C208.043 125.592 207.723 125.272 207.723 124.888C207.723 124.344 208.427 123.96 210.635 123.768L212.715 123.608C212.715 124.504 211.627 125.592 209.099 125.592ZM242.465 113.4C239.233 113.4 236.929 115 236.097 119.32L231.777 114.04H226.529V131H238.369V126.808C238.369 124.344 239.169 123.576 241.953 123.576C243.649 123.576 245.377 123.704 246.593 123.8V113.752C245.825 113.624 244.257 113.4 242.465 113.4ZM272.072 114.04H264.008V108.76H257.032L253.48 114.04H248.072V121.272H252.616V122.456C252.616 129.176 255.08 131.64 264.2 131.64C267.784 131.64 270.44 131.256 272.104 131V123.864C270.344 124.056 268.776 124.184 266.856 124.184C264.392 124.184 264.008 123.8 264.008 122.136V121.272H272.072V114.04Z" fill="#D4CAFF"/>
</g>
<defs>
<clipPath id="clip0_395_1602">
<rect width="320" height="236" rx="30" fill="white"/>
</clipPath>
</defs>
</svg>
